# xmcd
#
# Track frame offsets: 
#        150
#        19684
#        36770
#
# Disc length: 747 seconds
#
# Revision: 0
# Processed by: cddbd v1.5.2PL0 Copyright (c) Steve Scherf et al.
# Submitted via: ExactAudioCopy v0.95b4
#
DISCID=1902e903
DTITLE=O'neal McKnight - Check Your Coat
DYEAR=2007
DGENRE=R&B
TTITLE0=Check Your Coat (ft. Greg Nice)
TTITLE1=Check Your Coat
TTITLE2=Check Your Coat (INST)
EXTD=
EXTT0=
EXTT1=
EXTT2=
PLAYORDER=
